<?xml version="1.0" encoding="UTF-8" standalone="no"?>
<!-- Created with Inkscape (http://www.inkscape.org/) -->

<svg
   xmlns:dc="http://purl.org/dc/elements/1.1/"
   xmlns:cc="http://creativecommons.org/ns#"
   xmlns:rdf="http://www.w3.org/1999/02/22-rdf-syntax-ns#"
   xmlns:svg="http://www.w3.org/2000/svg"
   xmlns="http://www.w3.org/2000/svg"
   xmlns:sodipodi="http://sodipodi.sourceforge.net/DTD/sodipodi-0.dtd"
   xmlns:inkscape="http://www.inkscape.org/namespaces/inkscape"
   width="210mm"
   height="297mm"
   viewBox="0 0 210 297"
   version="1.1"
   id="svg8"
   inkscape:version="0.92.4 (5da689c313, 2019-01-14)"
   sodipodi:docname="Logo.svg">
  <defs
     id="defs2" />
  <sodipodi:namedview
     id="base"
     pagecolor="#ffffff"
     bordercolor="#666666"
     borderopacity="1.0"
     inkscape:pageopacity="0.0"
     inkscape:pageshadow="2"
     inkscape:zoom="0.49497475"
     inkscape:cx="168.67145"
     inkscape:cy="606.32534"
     inkscape:document-units="mm"
     inkscape:current-layer="layer1"
     showgrid="false"
     inkscape:window-width="1366"
     inkscape:window-height="705"
     inkscape:window-x="-8"
     inkscape:window-y="-8"
     inkscape:window-maximized="1"
     showguides="true"
     inkscape:guide-bbox="true">
    <sodipodi:guide
       position="161.96533,354.3994"
       orientation="0,1"
       id="guide18"
       inkscape:locked="false" />
    <sodipodi:guide
       position="173.19065,354.3994"
       orientation="0,1"
       id="guide20"
       inkscape:locked="false" />
  </sodipodi:namedview>
  <metadata
     id="metadata5">
    <rdf:RDF>
      <cc:Work
         rdf:about="">
        <dc:format>image/svg+xml</dc:format>
        <dc:type
           rdf:resource="http://purl.org/dc/dcmitype/StillImage" />
        <dc:title />
      </cc:Work>
    </rdf:RDF>
  </metadata>
  <g
     inkscape:label="Capa 1"
     inkscape:groupmode="layer"
     id="layer1">
    <path
       style="fill:#d45500;stroke-width:0.61644763"
       id="path3741"
       d="m 2.3483878,87.132063 c 0.093628,-4.224404 0.057348,-8.452422 0.041161,-12.678269 -0.014465,-3.321289 -0.021175,-6.642619 -0.024625,-9.963997 -0.1721503,-4.406486 1.0182113,-8.457642 2.1737739,-12.419922 1.5527948,-4.907 3.8913421,-8.943758 6.8579163,-12.097387 7.238972,-6.708941 14.530042,-13.6575 22.70621,-17.570095 2.489613,-1.142683 5.082295,-1.439523 7.672404,-1.547081 2.573305,-0.07636 5.047209,1.574539 7.385188,3.007872 3.265809,2.199351 5.50573,4.149727 7.39856,8.722893 1.123784,3.558612 1.64624,7.463585 2.078592,11.314554 0.337436,3.274512 0.401899,6.587864 0.436995,9.893345 0.01614,3.092731 0.01646,6.185793 -0.0073,9.278443 0.09831,4.020799 -0.463311,7.88196 -1.385185,11.638131 -1.166254,5.134175 -2.941364,9.860455 -4.645407,14.632232 -1.869902,5.519005 -4.238631,10.58362 -6.672767,15.582298 -1.928702,4.18497 -3.878256,8.33841 -5.624891,12.69434 -2.129938,5.14134 -4.383241,10.14837 -6.387959,15.40009 -1.776373,4.12834 -3.339877,8.36867 -4.514814,12.93605 -1.024101,4.33809 -1.455807,8.92931 -1.968739,13.44604 -0.403402,3.52014 -0.555903,7.08206 -0.628811,10.64503 -0.04349,3.02778 -0.03311,6.0565 -0.02944,9.08477 -0.19406,3.57101 0.52986,6.67841 1.999521,9.48087 1.692003,2.64002 3.93688,4.46933 6.048308,6.32659 2.548606,2.15922 5.367049,3.26066 8.258272,3.83723 2.172498,0.33941 4.36047,0.30348 6.541938,0.291 3.171885,0.01 6.073725,-2.62344 8.788142,-4.78188 -20.880414,17.43455 -12.343573,11.29643 -8.310388,6.31944 1.298489,-1.60233 2.498248,-3.36337 3.701099,-5.11569 2.404898,-3.22473 3.514401,-7.6387 4.785921,-11.90393 1.050952,-3.35617 1.55242,-6.93012 1.810535,-10.5785 0.163231,-3.40574 0.137086,-6.82288 0.126356,-10.23469 -0.01329,-3.07159 -0.02216,-6.1432 -0.02659,-9.21489 0.860069,1.48323 -1.091941,-5.81883 -0.981389,-4.2269 0.03184,0.45773 -0.0031,1.52855 0.275565,1.31945 4.401637,-3.30284 8.505606,-7.39976 12.75843,-11.0996 -0.636151,2.40103 -0.533712,5.13476 -0.563218,7.67994 0.02342,3.02951 -0.100496,6.07108 0.07967,9.09198 0.240019,3.04307 0.730383,6.00307 1.219111,8.97312 0.141074,3.32161 1.269334,5.95684 2.260766,8.83648 1.103064,2.94474 1.840813,6.10581 3.037951,8.97615 1.246231,2.81209 3.108679,3.9471 5.09916,5.21498 1.914825,1.15813 3.970573,1.43368 6.015842,1.59274 2.387559,0.4465 4.599989,-0.48397 6.846322,-1.50809 1.206855,-0.60554 2.576109,-0.88288 3.725636,-1.71958 0.52019,-0.37857 1.96378,-1.81783 1.45756,-1.40036 -9.386911,7.74044 -15.41756,13.24972 -9.750251,8.10581 2.467127,-2.11607 4.667592,-4.61044 5.90152,-8.45503 0.737613,-3.01652 0.701713,-6.25922 0.711886,-9.42109 -0.02944,-4.25136 0.0015,-8.50262 -0.0085,-12.75402 -0.02944,-4.73695 -0.0426,-9.47446 -10e-4,-14.21116 -0.11398,-5.52576 -0.71985,-10.98383 -1.250998,-16.44482 -0.746931,-6.14013 -1.116412,-12.36099 -1.770273,-18.51773 -0.782103,-5.94672 -1.60317,-11.88591 -2.298787,-17.856057 -0.694236,-5.95791 -0.721568,-12.02173 -0.790922,-18.048306 -0.01203,-5.985137 -0.06862,-11.970087 -0.076,-17.95527 0.02596,-5.596208 0.04526,-11.191922 0.01741,-16.788192 -0.02595,-3.8736 -0.04792,-7.747217 -0.05862,-11.620964 0,0 13.540385,-10.136177 13.540385,-10.136177 v 0 c -0.012,3.904163 -0.0347,7.808195 -0.0613,11.712179 -0.0294,5.593523 -0.012,11.186639 -0.003,16.780209 -0.0206,5.994934 -0.0931,11.990419 -0.0206,17.985283 0.0613,5.918046 0.13788,11.856998 0.73565,17.721701 0.65441,5.981173 1.47013,11.924138 2.24765,17.872524 0.81225,6.13205 0.92377,12.42804 1.84098,18.54735 0.52552,5.55868 1.1897,11.0897 1.36204,16.70816 0.0439,4.72805 0.0294,9.45681 0.0206,14.18522 0.012,4.23302 0.0785,8.46476 0.0981,12.69769 0.009,3.39177 0.0981,6.8307 -0.45111,10.15329 -0.96299,4.40741 -2.92431,7.52902 -5.65718,9.85258 -6.85565,6.34101 -13.565326,13.66937 -21.490303,16.62169 -2.360956,0.93033 -4.749151,1.28339 -7.190934,0.89151 -2.164528,-0.31099 -4.306225,-0.86811 -6.297573,-2.21902 -2.237524,-1.4444 -4.184227,-3.32747 -5.566205,-6.38235 -1.234978,-2.92372 -2.01842,-6.11014 -3.115255,-9.13779 -1.021446,-3.0224 -2.335568,-5.78829 -2.447478,-9.27649 -0.48309,-3.05591 -1.046131,-6.06884 -1.301584,-9.19404 -0.314054,-3.09323 -0.122431,-6.2328 -0.171176,-9.35334 0.01203,-2.80847 0.03184,-5.61921 0.19846,-8.41914 10.718145,-10.10929 13.167543,-19.57291 15.423641,-5.52403 0.0025,3.07355 0.0085,6.1471 0.01203,9.22066 0.0038,3.4726 0.01203,6.94704 -0.09071,10.41712 -0.153672,3.87406 -0.608443,7.68807 -1.656214,11.27882 -1.279665,4.39871 -2.324999,9.10255 -4.573304,12.67668 -6.268079,9.34019 -12.141758,15.55932 -21.064273,21.1239 -2.938072,2.18568 -5.981467,4.32311 -9.363232,4.07389 -2.221476,-0.0232 -4.452604,-0.0729 -6.648397,-0.6262 -3.004334,-0.86468 -5.903055,-2.29444 -8.561979,-4.5681 -2.254927,-2.07105 -4.687806,-3.92629 -6.378501,-7.02429 -1.565393,-3.17519 -2.645121,-6.68712 -2.505423,-10.6976 -0.0047,-3.05055 -0.01532,-6.10139 0.01912,-9.15163 0.06301,-3.67417 0.201359,-7.34942 0.61696,-10.97972 0.526762,-4.6193 0.986219,-9.29828 1.832062,-13.80816 1.144159,-4.71902 2.560439,-9.19824 4.517419,-13.33332 2.025341,-5.22933 4.111433,-10.37804 6.353772,-15.41466 1.739972,-4.39675 3.562532,-8.67395 5.537288,-12.85561 2.40925,-4.97528 5.022285,-9.76631 6.810343,-15.328766 1.643066,-4.724228 3.49955,-9.30413 4.657689,-14.355384 0.934971,-3.477709 1.614486,-7.075037 1.531978,-10.855937 -0.01583,-3.079835 0.006,-6.159674 -0.0015,-9.239603 -0.01456,-3.217139 -0.03589,-6.442517 -0.303482,-9.640438 -0.344627,-3.592243 -0.838416,-7.202064 -1.772621,-10.570227 -1.545934,-3.815143 -4.07962,-5.892506 -6.838366,-7.523426 -2.289842,-1.241304 -4.614207,-2.535299 -7.099458,-2.165719 -2.487157,0.216092 -4.958295,0.707251 -7.315487,1.958516 -1.692189,0.912781 -3.34411,1.898253 -4.967623,3.055102 -0.555168,0.395626 -2.180527,1.695518 -1.650152,1.232208 18.134125,-15.839127 14.175066,-12.270896 9.895536,-8.387385 -3.113278,2.587519 -5.574793,6.267271 -7.249629,10.946407 -1.144331,3.600012 -2.37537,7.428573 -2.314783,11.481707 -0.0036,3.333745 -0.0106,6.667477 -0.02463,10.001193 -0.01617,4.20521 -0.05309,8.412753 0.04116,12.616438 0,0 -13.5829638,10.168051 -13.5829638,10.168051 z"
       inkscape:connector-curvature="0" />
    <path
       style="fill:#d45500;stroke-width:0.61644763"
       id="path3743"
       d="m 129.2288,30.429652 c 1.70687,4.220435 3.03655,8.710027 4.21492,13.29291 0.74081,3.933926 2.08342,7.5193 2.86365,11.427067 0.61384,3.456239 0.76261,7.025671 0.84288,10.579326 -0.012,3.070993 0.46358,6.080494 0.72402,9.115824 0.23727,3.602496 0.26351,7.222485 0.28598,10.838191 0.012,3.500206 0.0347,7.000502 0.012,10.500708 -0.0573,4.266072 -0.0294,8.533432 -0.012,12.799972 0.012,3.25582 0.0206,6.51173 0.0206,9.76762 0.002,3.01461 0.002,6.02923 0.002,9.04384 -7e-5,3.01517 -2e-4,6.03028 -2e-4,9.04547 -4e-5,3.01894 -4e-5,6.03784 -4e-5,9.05682 0,3.01919 0,6.03836 0,9.05755 -0.003,3.14496 0.012,6.28994 -0.0206,9.43448 -0.0379,4.2198 -0.004,8.43973 -0.012,12.6596 0.012,3.88817 0.003,7.77624 0.012,11.66436 0.003,1.74369 0.009,3.4874 0.012,5.23104 0,0 -13.53389,10.13133 -13.53389,10.13133 v 0 c 0.003,-1.74994 0.009,-3.49992 0.012,-5.2499 0.009,-3.89376 -0.002,-7.78746 0.012,-11.68121 -0.009,-4.21364 0.026,-8.42728 -0.012,-12.64085 -0.0347,-3.13392 -0.0174,-6.26825 -0.0206,-9.40255 0,-3.01919 0,-6.0384 0,-9.05753 0,-3.01893 0,-6.03789 -5e-5,-9.05679 -4e-5,-3.01508 -1.2e-4,-6.03006 -2.6e-4,-9.0451 -8e-5,-3.0153 -3.8e-4,-6.03067 0.002,-9.04607 0.002,-3.26681 0.009,-6.53363 0.0206,-9.80044 0.0174,-4.26333 0.0499,-8.52742 -0.003,-12.79047 -0.012,-3.49764 0.0174,-6.995282 0.004,-10.492972 -0.0206,-3.530795 -0.0379,-7.068527 -0.25413,-10.587572 -0.23388,-3.109699 -0.74583,-6.17924 -0.77781,-9.307785 -0.0379,-3.385301 -0.10784,-6.79374 -0.63222,-10.106831 -0.72617,-3.881268 -2.06976,-7.416685 -2.74119,-11.329553 -1.09546,-4.438136 -2.32997,-8.830922 -4.17121,-12.731037 0,0 13.1484,-11.319448 13.1484,-11.319448 z"
       inkscape:connector-curvature="0" />
    <path
       style="fill:#d45500;stroke-width:0.61644763"
       id="path3745"
       d="m 110.50128,38.506939 c 2.05206,-4.648085 4.40122,-8.876677 6.95658,-12.94294 5.29887,-8.952242 12.29728,-14.692999 19.80501,-19.3592974 2.29441,-1.833718 4.84085,-2.7534363 7.35098,-3.7095502 2.49712,-0.957787 5.06611,-1.0796427 7.62885,-1.1680287 2.53643,-0.073132 5.0735,-0.071505 7.61031,-0.069874 2.1039,0.0031 4.20783,0.00604 6.31175,0.00726 2.05047,0.00148 4.10096,0.00148 6.1515,0.00148 2.7397,-0.35939264 5.33774,0.5114651 7.99235,1.3530867 3.72356,1.2528403 6.95288,4.3451832 10.42924,6.5511629 3.19861,1.5391207 6.20133,3.6824827 8.99662,6.4209567 2.40836,2.464135 4.56633,5.273577 6.04292,9.022788 1.01213,2.978091 1.18958,6.270798 1.27776,9.538499 0.0426,3.033546 0.009,6.068031 -0.004,9.1018 -0.0347,3.662581 -0.0453,7.325679 -0.0439,10.988566 -0.11889,4.270039 -0.582,8.439456 -1.60496,12.440323 -1.57787,5.142099 -3.78974,9.802499 -6.14608,14.230875 -2.34924,4.298465 -4.96578,8.235785 -7.75657,11.910402 -2.66934,3.497269 -5.33872,6.984343 -8.16278,10.211112 -7.12132,7.64112 -15.27723,12.70778 -22.89751,19.08507 22.89861,-19.49192 6.8736,-5.83397 1.63126,-1.06875 -3.08704,2.43036 -5.83544,5.39367 -8.34619,8.96095 -1.87223,2.57653 -3.36068,5.65576 -5.15676,8.33371 0,0 -14.04347,8.41329 -14.04347,8.41329 v 0 c 2.05657,-2.37717 3.43672,-5.59304 5.28666,-8.28699 2.48431,-3.7284 5.01293,-7.18895 8.27176,-9.4464 7.85873,-7.33153 16.10163,-13.73809 24.06641,-20.80597 1.62659,-1.3292 3.26634,-2.57939 4.92912,-3.80725 0.58526,-0.43201 2.31356,-1.80328 1.7514,-1.30921 -3.14111,2.76063 -16.14097,13.9071 -9.49003,8.11608 2.88925,-3.10124 5.5664,-6.56561 8.23234,-10.06729 2.80994,-3.595832 5.49009,-7.380871 7.88712,-11.587252 2.37967,-4.204794 4.52143,-8.692382 6.1998,-13.587807 1.18309,-3.69034 1.64102,-7.566717 1.84085,-11.625333 0.004,-3.655333 -0.002,-7.310618 -0.009,-10.965947 0.012,-3.00966 0.0426,-6.019348 0.0294,-9.029094 -0.038,-2.91505 -0.076,-5.893933 -0.90002,-8.604399 -1.31174,-3.479539 -3.39359,-5.944114 -5.60305,-8.175163 -2.76181,-2.591141 -5.74451,-4.473765 -8.80426,-6.180201 -3.36843,-2.254154 -6.59637,-5.133396 -10.28359,-6.121825 -2.62881,-0.754693 -5.2406,-1.091502 -7.9214,-0.873462 -2.05071,-8.2e-5 -4.1014,-3.3e-5 -6.15206,-0.0031 -2.09909,-0.0045 -4.19817,-0.01191 -6.29725,-0.02598 -2.50995,-0.01321 -5.02082,-0.03577 -7.52979,0.08936 -2.5094,0.182135 -5.01473,0.549325 -7.43551,1.597773 -2.47307,1.050397 -4.91996,2.182324 -7.18751,4.018885 -5.01166,3.898395 -3.50394,2.756817 10.70655,-9.31685 0.39718,-0.337295 -0.78259,0.706767 -1.1484,1.113437 -1.3508,1.501589 -2.43378,3.420362 -3.62975,5.163907 -2.53556,3.922165 -5.16512,7.729623 -6.80245,12.659048 0,0 -14.0318,8.807672 -14.0318,8.807672 z"
       inkscape:connector-curvature="0" />
  </g>
</svg>
